# xmcd
#
# Track frame offsets: 
#        150
#        36900
#        62045
#        99352
#        123792
#        142945
#        166467
#        197392
#        217672
#        245490
#
# Disc length: 3612 seconds
#
# Revision: 2
# Processed by: cddbd v1.5.2PL0 Copyright (c) Steve Scherf et al.
# Submitted via: ExactAudioCopy v0.99pb4
#
DISCID=7d0e1a0a
DTITLE=Various Artist - The Story of Jazz Vol.7 - The Foundations of Modern
DYEAR=1961
DGENRE=Jazz
TTITLE0=Miles Davis - If I Were A Bell
TTITLE1=Thelonious Monk - Honeysuckle Rose
TTITLE2=John Lewis - Love Me or Leave Me
TTITLE3=John Coltrane - Soultrane
TTITLE4=Charlie Mingus - Abstractions
TTITLE5=Sonny Rollins - My Reverie
TTITLE6=The Modern Jazz Quartet - Three Windows
TTITLE7=Buddy Rich and Max Roach - Figure Eights
TTITLE8=Oscar Pettiford - Stardust
TTITLE9=Eric Dolphy - Moods in Free Time
EXTD=YEAR: 1961
EXTT0=
EXTT1=
EXTT2=
EXTT3=
EXTT4=
EXTT5=
EXTT6=
EXTT7=
EXTT8=
EXTT9=
PLAYORDER=
